<svg width="120" height="23" viewBox="0 0 120 23" fill="none" xmlns="http://www.w3.org/2000/svg">
<g clip-path="url(#clip0_6669_92)">
<g clip-path="url(#clip1_6669_92)">
<path d="M50.1131 21.3933H46.8174L36.9012 7.01578V21.3933H33.6055V2.11246H36.9012L46.8174 16.4623V2.11246H50.1131V21.3933Z" fill="black"/>
<path d="M61.3506 21.6427C59.8473 21.6427 58.4885 21.3195 57.2743 20.6731C56.06 20.0082 55.106 19.0848 54.4122 17.9028C53.7183 16.7024 53.3714 15.3173 53.3714 13.7475C53.3714 12.1961 53.728 10.8202 54.4411 9.61981C55.1542 8.41937 56.1275 7.49596 57.361 6.84957C58.5945 6.20318 59.9725 5.87999 61.4951 5.87999C63.0177 5.87999 64.3958 6.20318 65.6293 6.84957C66.8628 7.49596 67.8361 8.41937 68.5492 9.61981C69.2623 10.8202 69.6189 12.1961 69.6189 13.7475C69.6189 15.2988 69.2527 16.6747 68.5203 17.8751C67.7879 19.0756 66.7857 20.0082 65.5136 20.6731C64.2609 21.3195 62.8732 21.6427 61.3506 21.6427ZM61.3506 18.9001C62.1986 18.9001 62.9888 18.7062 63.7212 18.3184C64.4729 17.9305 65.08 17.3488 65.5425 16.5731C66.0051 15.7974 66.2364 14.8556 66.2364 13.7475C66.2364 12.6394 66.0147 11.7067 65.5715 10.9495C65.1282 10.1739 64.5403 9.59211 63.8079 9.20427C63.0756 8.81644 62.2853 8.62252 61.4373 8.62252C60.5893 8.62252 59.7991 8.81644 59.0667 9.20427C58.3536 9.59211 57.785 10.1739 57.361 10.9495C56.937 11.7067 56.725 12.6394 56.725 13.7475C56.725 15.3911 57.1586 16.6655 58.0259 17.5704C58.9125 18.4569 60.0207 18.9001 61.3506 18.9001Z" fill="black"/>
<path d="M79.7864 21.6427C78.2831 21.6427 76.9243 21.3195 75.7101 20.6731C74.4959 20.0082 73.5418 19.0848 72.848 17.9028C72.1541 16.7024 71.8072 15.3173 71.8072 13.7475C71.8072 12.1961 72.1638 10.8202 72.8769 9.61981C73.59 8.41937 74.5633 7.49596 75.7968 6.84957C77.0303 6.20318 78.4084 5.87999 79.931 5.87999C81.4536 5.87999 82.8316 6.20318 84.0651 6.84957C85.2986 7.49596 86.2719 8.41937 86.985 9.61981C87.6981 10.8202 88.0547 12.1961 88.0547 13.7475C88.0547 15.2988 87.6885 16.6747 86.9561 17.8751C86.2237 19.0756 85.2215 20.0082 83.9495 20.6731C82.6967 21.3195 81.309 21.6427 79.7864 21.6427ZM79.7864 18.9001C80.6344 18.9001 81.4247 18.7062 82.157 18.3184C82.9087 17.9305 83.5158 17.3488 83.9784 16.5731C84.4409 15.7974 84.6722 14.8556 84.6722 13.7475C84.6722 12.6394 84.4506 11.7067 84.0073 10.9495C83.564 10.1739 82.9762 9.59211 82.2438 9.20427C81.5114 8.81644 80.7212 8.62252 79.8731 8.62252C79.0251 8.62252 78.2349 8.81644 77.5025 9.20427C76.7894 9.59211 76.2208 10.1739 75.7968 10.9495C75.3728 11.7067 75.1608 12.6394 75.1608 13.7475C75.1608 15.3911 75.5944 16.6655 76.4618 17.5704C77.3483 18.4569 78.4566 18.9001 79.7864 18.9001Z" fill="black"/>
<path d="M97.6151 13.7752L104.958 21.3933H100.506L94.6085 14.8279V21.3933H91.3127V0.893555H94.6085V12.8056L100.39 6.12931H104.958L97.6151 13.7752Z" fill="black"/>
<path d="M113.103 21.6427C111.85 21.6427 110.722 21.4303 109.72 21.0055C108.737 20.5623 107.957 19.9713 107.378 19.2325C106.8 18.4753 106.492 17.635 106.453 16.7116H109.865C109.922 17.358 110.24 17.9028 110.819 18.3461C111.416 18.7708 112.158 18.9832 113.045 18.9832C113.97 18.9832 114.683 18.817 115.184 18.4846C115.704 18.1337 115.965 17.6904 115.965 17.1549C115.965 16.5823 115.676 16.1576 115.097 15.8806C114.538 15.6035 113.642 15.2988 112.409 14.9664C111.214 14.6524 110.24 14.3477 109.489 14.0522C108.737 13.7567 108.082 13.3042 107.523 12.6948C106.983 12.0853 106.713 11.282 106.713 10.2847C106.713 9.47206 106.964 8.73333 107.465 8.06847C107.966 7.38515 108.679 6.84957 109.604 6.46174C110.549 6.0739 111.628 5.87999 112.842 5.87999C114.654 5.87999 116.109 6.32322 117.208 7.2097C118.326 8.07771 118.923 9.26891 119 10.7833H115.704C115.647 10.1 115.358 9.55517 114.837 9.14887C114.317 8.74257 113.613 8.53942 112.727 8.53942C111.859 8.53942 111.195 8.6964 110.732 9.01036C110.269 9.32432 110.038 9.73985 110.038 10.257C110.038 10.6633 110.192 11.0049 110.501 11.282C110.809 11.559 111.185 11.7806 111.628 11.9468C112.071 12.0946 112.727 12.2885 113.594 12.5286C114.75 12.8241 115.695 13.1288 116.427 13.4427C117.179 13.7382 117.825 14.1815 118.364 14.7725C118.904 15.3634 119.183 16.1483 119.203 17.1272C119.203 17.9952 118.952 18.7708 118.451 19.4542C117.95 20.1375 117.237 20.6731 116.312 21.0609C115.406 21.4487 114.336 21.6427 113.103 21.6427Z" fill="black"/>
<path d="M10.3889 5.95173C10.3889 6.41255 10.3205 6.85794 10.1931 7.27892C10.1695 7.9635 10.47 8.62806 11.043 9.06021L16.715 13.3296C17.2996 13.772 18.0604 13.8844 18.7548 13.6766C18.987 13.5423 19.2317 13.426 19.4868 13.3299C20.0754 12.9293 20.4411 12.2833 20.4411 11.5726V8.60094C20.4411 7.9274 20.1221 7.29603 19.5826 6.89888C18.9217 6.66524 18.3145 6.29412 17.8073 5.80404C16.8916 4.9192 16.3771 3.71904 16.3771 2.46766H16.4088L16.4086 2.42239H16.4271C16.6333 1.88989 18.7246 1.4704 21.2725 1.4704C23.8204 1.4704 25.9118 1.88989 26.118 2.42239H26.1346L26.1343 2.46766H26.1429C26.1429 3.71904 25.6285 4.9192 24.7127 5.80404C24.2165 6.28353 23.6244 6.64923 22.98 6.88358C22.4287 7.27872 22.1021 7.91933 22.1021 8.60094V11.5726L22.1104 11.5694C22.1104 12.2873 22.4755 12.9585 23.0824 13.3487C24.8765 14.0466 26.1429 15.7441 26.1429 17.7274L26.1428 17.7451V17.7463C26.1428 20.3662 23.9255 22.4869 21.2042 22.4454C18.5332 22.4166 16.3771 20.3154 16.3771 17.7274C16.3771 17.2693 16.4447 16.8265 16.5707 16.4076C16.6016 15.7145 16.2985 15.0389 15.7213 14.605L10.0643 10.3468C9.47371 9.90094 8.70417 9.79019 8.0041 10.0067C7.77391 10.1394 7.53145 10.2543 7.27877 10.3495C6.68215 10.7474 6.31663 11.4028 6.31663 12.115V15.0867C6.31663 15.8117 6.68613 16.4877 7.30126 16.8755C7.91649 17.1106 8.48179 17.4662 8.95865 17.927C9.87438 18.8119 10.3888 20.012 10.3888 21.2634H10.3552C10.3555 21.2677 10.3556 21.272 10.3556 21.2764C10.3556 21.8493 8.17789 22.3149 5.49343 22.3149C3.0566 22.3149 1.03735 21.9312 0.685566 21.4319C0.644499 21.3776 0.623147 21.3219 0.623147 21.2652L0.623047 21.2634C0.623047 21.1465 0.627658 21.0306 0.636379 20.9159C0.66702 20.5128 0.75029 20.124 0.879537 19.7557C1.11775 19.0733 1.51629 18.4459 2.05323 17.927C2.49968 17.4956 3.02369 17.1564 3.59357 16.922C4.25548 16.5452 4.65562 15.8411 4.65562 15.0867V12.115C4.65562 11.3888 4.28335 10.7105 3.66291 10.3224C1.87984 9.61952 0.623147 7.92747 0.623147 5.95173V5.9381C0.623147 4.06272 1.76192 2.44228 3.40835 1.68977C4.04387 1.39717 4.75516 1.2334 5.50602 1.2334C8.20278 1.2334 10.3889 3.34585 10.3889 5.95173Z" fill="black"/>
</g>
</g>
<defs>
<clipPath id="clip0_6669_92">
<rect width="120" height="23" fill="white"/>
</clipPath>
<clipPath id="clip1_6669_92">
<rect width="129" height="25" fill="white" transform="translate(-4 -1)"/>
</clipPath>
</defs>
</svg>
